<?xml version="1.0" encoding="UTF-8"?>
<svg id="_图层_2" data-name="图层 2" xmlns="http://www.w3.org/2000/svg" viewBox="0 0 41.4 77.24">
  <defs>
    <style>
      .cls-1 {
        stroke-linejoin: bevel;
      }

      .cls-1, .cls-2 {
        fill: none;
        stroke: #600;
        stroke-linecap: round;
        stroke-width: 3px;
      }

      .cls-2 {
        stroke-linejoin: round;
      }

      .cls-3 {
        fill: rgba(102, 0, 51, .98);
      }

      .cls-4 {
        fill: #c4c4c4;
      }

      .cls-5 {
        fill: #d0d0d0;
      }

      .cls-6 {
        fill: #919191;
      }

      .cls-7 {
        fill: #ccc;
      }

      .cls-8 {
        fill: #d9d9d9;
      }
    </style>
  </defs>
  <g id="_图层_1-2" data-name="图层 1">
    <g>
      <g id="Layer0_0_FILL" data-name="Layer0 0 FILL">
        <path class="cls-7" d="M27.2,54.35c0-.06,0-.11,0-.15,0,.1-.02.2-.05.3l.05-.15M26.35,49.15l.05.3.55,1.15c-.13-.73-.33-1.22-.6-1.45M26.1,47.15h-.05c.03.07.07.15.1.25,0-.1-.02-.18-.05-.25M26.05,46.05l-.45-.15c.1,0,.18,0,.25,0l-.7-.55-.65-.35c-.13-.1-.28-.18-.45-.25.07.03.12.07.15.1l.2.25c.53.33.95.73,1.25,1.2.04.03.08.06.1.1.08.04.14.09.2.15l.1-.5M22.15,44.3v.05h.1s.02-.05.05-.05h-.15M22.35,44.15l-.05-.05v.05h.05M22.25,44l-.05-.7-.05,1h.15l-.05-.25v-.05Z"/>
        <path class="cls-6" d="M25.7,46.4c.06.08.11.16.15.25.03.03.07.1.1.2.03.1.07.2.1.3h.05c.03-.3.02-.48-.05-.55,0-.07-.04-.08-.1-.05-.06-.06-.12-.11-.2-.15-.02-.04-.06-.07-.1-.1.02.04.04.07.05.1M26.05,46.05l-.2-.15c-.07,0-.15,0-.25,0l.45.15M26.05,46.3v-.25l-.1.5c.06-.03.1-.02.1.05v-.3Z"/>
        <path class="cls-4" d="M22.35,44.3h-.05s-.05.02-.05.05c.3.03.48.03.55,0v-.05h-.45M21.15,35.65l-.4-.05.35.05c.3.07.55.2.75.4l.25.15.8.95.15.25c.07.17.08.37.05.6,0,.37-.05.73-.15,1.1l-.05.15v.1l-.2.25-.3.8-.1.1-.2,1.15v.6s.07.02.1.05l-.05-.65.2-1.15.1-.1.3-.8.2-.25v-.1l.05-.15c.1-.37.15-.73.15-1.1.03-.23.02-.43-.05-.6l-.15-.25-.8-.95-.25-.15c-.2-.2-.45-.33-.75-.4Z"/>
        <path class="cls-5" d="M21.6,44.45h.05c.1-.03.27-.07.5-.1v-.05c-.2.03-.38.08-.55.15Z"/>
        <path class="cls-8" d="M12.35,35l-.2.25.4-.1-.2-.15Z"/>
        <path class="cls-3" d="M8.3,27.9l.05.25v-.25h-.05M20.1,47.15c.07,0,.12,0,.15,0l-.1-.05-.05.05Z"/>
      </g>
      <path id="Layer0_0_1_STROKES" data-name="Layer0 0 1 STROKES" class="cls-2" d="M7.03,40.3c-3.68-4.41-5.53-9.74-5.53-16s1.88-11.68,5.65-16.15c1.73-2.07,3.65-3.65,5.75-4.75,2-1.07,4.17-1.68,6.5-1.85l1.3-.05c.73,0,1.45.05,2.15.15,4.4.47,8.22,2.63,11.45,6.5l.9,1.15c1.8,2.4,3.08,5.07,3.85,8,.57,2.17.85,4.48.85,6.95v.1c0,6.3-1.87,11.67-5.6,16.1-.41.49-.84.95-1.27,1.38M5.7,73.12c6.78,2.93,16.9,3.4,30.38,1.4M7.03,40.3s.08.1.12.15c2.5,3,5.35,4.98,8.55,5.95.33.1.65.18.95.25l.45.1.05.05c.1.03.28.07.52.1l.28-5.3.15-.85.05-2.4.15-.55v-.2l.15-.2.15-.4.45-.55.2-.3.45-.4.2-.05h.05l.75-.1h.05l.4.05c.3.07.55.2.75.4l.25.15.8.95.15.25c.07.17.08.37.05.6,0,.37-.05.73-.15,1.1l-.05.15v.1l-.2.25-.3.8-.1.1-.2,1.15.05.65.1,1.8s-.02-.05-.05-.05l.05.25h.05l-.05-.15v-.05l.05.05c.13.03.25.08.35.15M22.8,44.35c.37.1.68.2.95.3h.1s.07.02.1.05l.05.05h.05c.17.07.32.15.45.25l.65.35.7.55c0-.37-.05-.68-.15-.95.5-.03,1.08.07,1.75.3.21.08.39.17.55.25,1.8-.88,3.48-2.1,5.02-3.67M20.75,35.6l.35.05c.3.07.55.2.75.4l.25.15.8.95.15.25c.07.17.08.37.05.6,0,.37-.05.73-.15,1.1l-.05.15v.1l-.2.25-.3.8-.1.1-.2,1.15v.6M31.7,27c-3.4.87-6.85,1.25-10.35,1.15v7.2M20.3,44.7c.5-.07.93-.15,1.3-.25.17-.07.35-.12.55-.15l.05-1-.1-1.05M27.15,54.5v.05l-.1.35-.05.1-.35.3-.65.3h-.3l-3.05.3h-.15l-1.65-.3-1.4-1.4c-.07-.07-.13-.12-.2-.15-.97-.97-1.52-2.07-1.65-3.3v-.3c0-.53.02-.93.05-1.2l-.05-.85.07-1.5M26.4,49.45v1.05c-.1.27-.23.68-.4,1.25s-.58.8-1.25.7c-.27-.03-.52-.1-.75-.2-.43-.2-.78-.53-1.05-1,0-.07,0-.15,0-.25l-.45-1.35-.95-.85h-1.5M11.1,27c3.4.87,6.82,1.25,10.25,1.15v-11.9M22.2,43.3l.05.7v.05M22.15,44.3v.05M22.25,44.35h-.05M22.3,44.3h-.15M22.3,44.15h.05v.15M22.8,44.35c-.07.03-.25.03-.55,0M26.05,46.6v-.55l-.1.5c.06-.03.1-.02.1.05.07.07.08.25.05.55.03.07.05.15.05.25,0,.03.02.13.05.3.03.17.07.37.1.6.07.23.08.4.05.5v.35M26.95,50.6c.17,1.57.25,2.75.25,3.55v.07s0,.07,0,.12l.35-1.25.2-.4c.17-1.43.42-2.62.75-3.55.37-.97.53-1.67.5-2.1,0-.47-.1-.82-.3-1.05-.11-.16-.35-.33-.7-.5-.63.31-1.28.58-1.95.8M26.05,46.05l-.2-.15c-.07,0-.15,0-.25,0l.45.15ZM26.05,47.15c-.03-.1-.07-.2-.1-.3-.03-.1-.07-.17-.1-.2-.04-.09-.08-.16-.12-.23-.03-.05-.05-.09-.08-.12-.3-.47-.72-.87-1.25-1.2l-.2-.25s-.08-.07-.15-.1M26.15,47.4c-.03-.1-.07-.18-.1-.25M26.35,49.15l.05.3.55,1.15M22.15,44.35c-.23.03-.4.07-.5.1M27.2,54.35l-.05.15c.03-.1.05-.19.05-.28M20.35,53.5c-.73-.67-1.2-1.62-1.4-2.85"/>
      <path id="Layer0_0_2_STROKES" data-name="Layer0 0 2 STROKES" class="cls-1" d="M33.02,41.83c.32,1.95.84,5.76,1.57,11.42.76,5.43,1.25,12.52,1.48,21.28M5.7,73.12l-.15-24.28c.1-1.23.13-2.47.1-3.7,0-1.79.46-3.4,1.38-4.85"/>
    </g>
  </g>
</svg>